<mxfile host="app.diagrams.net" modified="2024-01-08T02:30:03.083Z" agent="Mozilla/5.0 (Windows NT 10.0; Win64; x64; rv:121.0) Gecko/20100101 Firefox/121.0" etag="WutVRci4lCy7_Yt3jTza" version="22.1.17" type="github">
  <diagram name="ページ1" id="stMijJPVbrqFQnEYRdUH">
    <mxGraphModel dx="703" dy="770" grid="1" gridSize="10" guides="1" tooltips="1" connect="1" arrows="1" fold="1" page="0" pageScale="1" pageWidth="827" pageHeight="1169" math="0" shadow="0">
      <root>
        <mxCell id="0" />
        <mxCell id="1" parent="0" />
        <mxCell id="K_4xKni-XRwyty3c8B5O-6" value="&lt;font style=&quot;font-size: 16px;&quot;&gt;MCU (STM32L432)&lt;/font&gt;" style="rounded=1;whiteSpace=wrap;html=1;fontFamily=Times New Roman;" vertex="1" parent="1">
          <mxGeometry x="20" y="70" width="270" height="190" as="geometry" />
        </mxCell>
        <mxCell id="K_4xKni-XRwyty3c8B5O-7" value="&lt;div style=&quot;font-size: 16px;&quot;&gt;&lt;font face=&quot;Times New Roman&quot; style=&quot;font-size: 16px;&quot;&gt;Power control unit for&lt;/font&gt;&lt;/div&gt;&lt;div style=&quot;font-size: 16px;&quot;&gt;&lt;font face=&quot;Times New Roman&quot; style=&quot;font-size: 16px;&quot;&gt;&lt;font style=&quot;font-size: 16px;&quot;&gt;wireless communication unit&lt;/font&gt;&lt;/font&gt;&lt;font face=&quot;UYQuwq_nZaDoub0qu4J1&quot; style=&quot;font-size: 16px;&quot;&gt;&lt;br&gt;&lt;/font&gt;&lt;/div&gt;" style="rounded=1;whiteSpace=wrap;html=1;" vertex="1" parent="1">
          <mxGeometry x="0.9999999999999893" y="-106.5" width="200" height="90" as="geometry" />
        </mxCell>
        <mxCell id="K_4xKni-XRwyty3c8B5O-8" value="&lt;div style=&quot;font-size: 16px;&quot;&gt;&lt;font face=&quot;Times New Roman&quot; style=&quot;font-size: 16px;&quot;&gt;Power control unit for&lt;/font&gt;&lt;/div&gt;&lt;div style=&quot;font-size: 16px;&quot;&gt;&lt;font face=&quot;Times New Roman&quot; style=&quot;font-size: 16px;&quot;&gt;sensor modules&lt;br&gt;&lt;/font&gt;&lt;/div&gt;" style="rounded=1;whiteSpace=wrap;html=1;" vertex="1" parent="1">
          <mxGeometry x="300" y="300" width="200" height="90" as="geometry" />
        </mxCell>
        <mxCell id="K_4xKni-XRwyty3c8B5O-9" value="&lt;font style=&quot;font-size: 16px;&quot;&gt;Bluetooth&lt;sup&gt;®&lt;/sup&gt; LE module (BC805M)&lt;/font&gt;" style="rounded=1;whiteSpace=wrap;html=1;fontFamily=Times New Roman;" vertex="1" parent="1">
          <mxGeometry x="330" y="70" width="270" height="190" as="geometry" />
        </mxCell>
        <mxCell id="K_4xKni-XRwyty3c8B5O-15" value="" style="group" vertex="1" connectable="0" parent="1">
          <mxGeometry x="-169.995" y="129.995" width="151.25" height="80" as="geometry" />
        </mxCell>
        <mxCell id="K_4xKni-XRwyty3c8B5O-11" value="" style="shape=offPageConnector;whiteSpace=wrap;html=1;rotation=90;size=0.13076923076923078;direction=east;" vertex="1" parent="K_4xKni-XRwyty3c8B5O-15">
          <mxGeometry x="35.625" y="-35.62499999999999" width="80" height="151.25" as="geometry" />
        </mxCell>
        <mxCell id="K_4xKni-XRwyty3c8B5O-12" value="&lt;div&gt;&lt;font style=&quot;font-size: 16px;&quot; face=&quot;Times New Roman&quot;&gt;ADC&lt;/font&gt;&lt;/div&gt;&lt;div&gt;&lt;font style=&quot;font-size: 16px;&quot; face=&quot;Times New Roman&quot;&gt;(ADS131M04)&lt;/font&gt;&lt;/div&gt;" style="text;html=1;align=center;verticalAlign=middle;resizable=0;points=[];autosize=1;strokeColor=none;fillColor=none;" vertex="1" parent="K_4xKni-XRwyty3c8B5O-15">
          <mxGeometry x="31.244999999999997" y="14.995000000000005" width="120" height="50" as="geometry" />
        </mxCell>
        <mxCell id="K_4xKni-XRwyty3c8B5O-13" value="&lt;font style=&quot;font-size: 12px;&quot; face=&quot;Times New Roman&quot;&gt;IN&lt;sup&gt;+&lt;/sup&gt;&lt;/font&gt;" style="text;html=1;align=center;verticalAlign=middle;resizable=0;points=[];autosize=1;strokeColor=none;fillColor=none;" vertex="1" parent="K_4xKni-XRwyty3c8B5O-15">
          <mxGeometry x="3.9949999999999974" y="6.4950000000000045" width="40" height="30" as="geometry" />
        </mxCell>
        <mxCell id="K_4xKni-XRwyty3c8B5O-14" value="&lt;font face=&quot;Times New Roman&quot;&gt;IN&lt;sup&gt;-&lt;/sup&gt;&lt;/font&gt;" style="text;html=1;align=center;verticalAlign=middle;resizable=0;points=[];autosize=1;strokeColor=none;fillColor=none;" vertex="1" parent="K_4xKni-XRwyty3c8B5O-15">
          <mxGeometry x="3.9949999999999974" y="43.495000000000005" width="40" height="30" as="geometry" />
        </mxCell>
        <mxCell id="K_4xKni-XRwyty3c8B5O-16" value="" style="group" vertex="1" connectable="0" parent="1">
          <mxGeometry x="-174" y="-96" width="134" height="69" as="geometry" />
        </mxCell>
        <mxCell id="K_4xKni-XRwyty3c8B5O-4" value="" style="rounded=1;whiteSpace=wrap;html=1;fontSize=16;" vertex="1" parent="K_4xKni-XRwyty3c8B5O-16">
          <mxGeometry width="120" height="60" as="geometry" />
        </mxCell>
        <mxCell id="K_4xKni-XRwyty3c8B5O-5" value="" style="group;fontFamily=Times New Roman;" vertex="1" connectable="0" parent="K_4xKni-XRwyty3c8B5O-16">
          <mxGeometry x="9" y="9" width="125" height="60" as="geometry" />
        </mxCell>
        <mxCell id="K_4xKni-XRwyty3c8B5O-3" value="" style="rounded=1;whiteSpace=wrap;html=1;" vertex="1" parent="K_4xKni-XRwyty3c8B5O-5">
          <mxGeometry x="105" y="15" width="20" height="30" as="geometry" />
        </mxCell>
        <mxCell id="K_4xKni-XRwyty3c8B5O-1" value="AAA Battery" style="rounded=1;whiteSpace=wrap;html=1;fontSize=16;fontFamily=Times New Roman;" vertex="1" parent="K_4xKni-XRwyty3c8B5O-5">
          <mxGeometry width="120" height="60" as="geometry" />
        </mxCell>
      </root>
    </mxGraphModel>
  </diagram>
</mxfile>
